<svg xmlns="http://www.w3.org/2000/svg" width="502" height="176" fill="none"><path fill="#DB3328" d="M399.2 56H357l-44.3-30C287.8 9 258.4 0 228.3 0H123L0 37.5V51h11v43H0v34l17.5 23H490v-23.8l12-27.3-23.1-17.3C455.9 65.3 428 56 399.2 56Z"/><path fill="#485143" d="M94 14H77.1L0 37.5l20.8.5L94 14Z"/><path fill="#747E6C" d="M291.6 14h-11.2l61.4 42H357l-44.3-30.1C306 21.4 298.9 17 291.6 14Z"/><path fill="#B5100B" d="M490 151H17.5L0 128h490v23ZM32.7 94H11V51h21.7l10.5 24.5L32.7 94Z"/><path fill="#485143" d="M326 54h-75L83.5 28.2 132 14h89.8c31.3 0 61.9 9.8 87.4 28L326 54Z"/><path fill="#B5100B" d="m352 127.1-162.9-9.7-31-39L190.5 64 349 88c0 5.3-4.6 9.5-9.9 8.9L202.4 81.4l-12.1 6 16.9 16 137.2 15.2c4.3.4 7.6 4.1 7.6 8.5Z"/><path fill="#EBEADF" d="M471 95h31v10h-31V95Z"/><path fill="#323D2C" d="M88.1 176c26.896 0 48.7-21.804 48.7-48.7 0-26.896-21.804-48.7-48.7-48.7-26.896 0-48.7 21.804-48.7 48.7 0 26.896 21.804 48.7 48.7 48.7Z"/><path fill="#485143" d="M90.3 78.6c-4-.2-8 .1-11.8.9-4.3.8-3.5 7.1.8 7.1h.7c26.7 0 48.7 22 48.7 48.7v.7c-.1 4.3 6.2 5.1 7.1.8.7-3.8 1.1-7.7.9-11.8-1.1-25-21.4-45.3-46.4-46.4Z"/><path fill="#1C2617" d="M109.9 150.9c-24.3-1.5-43.9-21.2-45.5-45.5v-.6c-.5-8.9-11.9-12-16.9-4.6-5.6 8.3-8.6 18.5-8.1 29.3 1.2 24.9 21.4 45.2 46.4 46.4 10.9.5 21-2.6 29.3-8.1 7.4-5 4.3-16.4-4.6-16.9h-.6Z"/><path fill="#747E6C" d="M88.1 151.2c13.2 0 23.9-10.7 23.9-23.9s-10.7-23.9-23.9-23.9-23.9 10.7-23.9 23.9 10.7 23.9 23.9 23.9Z"/><path fill="#C4C1AB" d="M90 103.4c-1.3-.1-2.6-.1-3.9 0-2.5.2-2.4 3.8.1 4h.3c11.2 1.1 20.3 10.2 21.4 21.4v.3c.2 2.5 3.8 2.5 4 .1.1-1.3.1-2.6 0-3.9-.9-11.6-10.3-21-21.9-21.9Z"/><path fill="#485143" d="M96.3 140c-11-1.2-19.8-10-21-21v-.3c-.5-4.7-6.8-5.9-8.9-1.7-1.7 3.6-2.5 7.7-2.2 12 .8 11.7 10.4 21.3 22.1 22.1 4.3.3 8.4-.5 11.9-2.2 4.3-2 3-8.4-1.7-8.9h-.2Z"/><path fill="#E67368" d="M17 51h7.7v43H17V51Z"/><path fill="#323D2C" d="M412.3 176c26.896 0 48.7-21.804 48.7-48.7 0-26.896-21.804-48.7-48.7-48.7-26.896 0-48.7 21.804-48.7 48.7 0 26.896 21.804 48.7 48.7 48.7Z"/><path fill="#1C2617" d="M434.1 150.9c-24.3-1.5-43.9-21.2-45.5-45.5v-.6c-.5-8.9-11.9-12-16.9-4.6-5.6 8.3-8.6 18.5-8.1 29.3 1.2 24.9 21.4 45.2 46.4 46.4 10.9.5 21-2.6 29.3-8.1 7.4-5 4.3-16.4-4.6-16.9h-.6Z"/><path fill="#747E6C" d="M412.1 151.2c13.2 0 23.9-10.7 23.9-23.9s-10.7-23.9-23.9-23.9c-13.199 0-23.9 10.7-23.9 23.9s10.701 23.9 23.9 23.9Z"/><path fill="#485143" d="M414.3 78.6c-4-.2-8 .1-11.8.9-4.3.8-3.5 7.1.8 7.1h.7c26.7 0 48.7 22 48.7 48.7v.7c-.1 4.3 6.2 5.1 7.1.8.7-3.8 1.1-7.7.9-11.8-1.1-25-21.4-45.3-46.4-46.4Z"/><path fill="#C4C1AB" d="M414 103.4c-1.3-.1-2.6-.1-3.9 0-2.5.2-2.4 3.8.1 4h.3c11.2 1.1 20.3 10.2 21.4 21.4v.3c.2 2.5 3.8 2.5 4 .1.1-1.3.1-2.6 0-3.9-.9-11.6-10.3-21-21.9-21.9Z"/><path fill="#485143" d="M420.3 140c-11-1.2-19.8-10-21-21v-.3c-.5-4.7-6.8-5.9-8.9-1.7-1.7 3.6-2.5 7.7-2.2 12 .8 11.7 10.4 21.3 22.1 22.1 4.3.3 8.4-.5 11.9-2.2 4.3-2 3-8.4-1.7-8.9h-.2Z"/><path fill="#E67368" d="M251 62h75l31 2h87.5c-14.4-5-29.8-8-45.3-8H357l-31-2h-75L83.4 28.2 0 37.5v8.6l83.5-6.8L251 62Z"/><mask id="a" width="243" height="40" x="83" y="14" maskUnits="userSpaceOnUse" style="mask-type:luminance"><path fill="#fff" d="M326 54h-75L83.5 28.2 132 14h89.8c31.3 0 61.9 9.8 87.4 28L326 54Z"/></mask><g mask="url(#a)"><path fill="#747E6C" d="M203.6 63.3h-17.9l-58-57.6h17.9l58 57.6Zm54.1 0h-37.4l-58-57.6h37.3l58.1 57.6Z"/></g><path fill="#323D2C" d="m190.2 44.7-20.4-3.2V14h20.4v30.7Z"/></svg>