<svg width="301" height="301" viewBox="0 0 301 301" fill="none" xmlns="http://www.w3.org/2000/svg">
<path d="M212.404 191.615C195.854 216.441 170.119 233.675 140.862 239.527C111.604 245.378 81.2207 239.367 56.3949 222.817C31.5692 206.266 14.3349 180.532 8.48338 151.274C2.63189 122.017 8.64253 91.6333 25.193 66.8075C47.2604 33.7065 81.5732 10.7275 120.583 2.92548C159.593 -4.87651 200.105 3.13768 233.206 25.205C266.307 47.2724 289.286 81.5852 297.088 120.595C304.89 159.605 296.875 200.117 274.808 233.218" fill="#CD2E3A"/>
<path d="M150.001 150.013C161.034 133.462 178.191 121.973 197.696 118.072C217.201 114.171 237.456 118.178 254.007 129.211C270.557 140.245 282.047 157.401 285.948 176.906C289.849 196.411 285.842 216.667 274.808 233.218C252.741 266.319 218.428 289.298 179.418 297.1C140.408 304.902 99.8966 296.888 66.7956 274.82C33.6945 252.753 10.7155 218.44 2.9135 179.43C-4.88849 140.42 3.1257 99.9086 25.193 66.8076C14.1594 83.3581 10.1523 103.614 14.0533 123.119C17.9543 142.624 29.4438 159.78 45.9943 170.814C62.5448 181.848 82.8006 185.855 102.306 181.954C121.81 178.053 138.967 166.563 150.001 150.013Z" fill="#0047A0"/>
</svg>
