<svg width="1000" height="354" viewBox="0 0 1000 354" fill="none" xmlns="http://www.w3.org/2000/svg">
<path d="M821.184 0C781.321 0 744.305 13.098 714.123 35.3076C683.941 13.098 646.925 0 607.061 0C567.198 0 530.182 13.098 500 35.3076C469.818 13.098 433.371 0 392.938 0C353.075 0 316.059 13.098 285.877 35.3076C256.264 13.098 219.248 0 178.815 0C80.296 0 0 79.1572 0 176.538C0 273.918 80.296 353.075 178.815 353.075C218.679 353.075 255.695 339.977 285.877 317.768C316.059 339.977 353.075 353.075 392.938 353.075C432.802 353.075 469.818 339.977 500 317.768C529.613 339.977 566.629 353.075 607.061 353.075C646.925 353.075 683.941 339.977 714.123 317.768C743.736 339.977 780.752 353.075 821.184 353.075C919.704 353.075 1000 273.918 1000 176.538C1000 79.1572 919.704 0 821.184 0ZM714.123 267.654C692.483 243.166 679.385 211.276 679.385 176.538C679.385 141.799 692.483 109.909 714.123 85.4214C735.763 109.909 748.861 141.799 748.861 176.538C748.861 211.276 735.763 243.166 714.123 267.654ZM500 267.654C478.36 243.166 465.262 211.276 465.262 176.538C465.262 141.799 478.36 109.909 500 85.4214C521.64 109.909 534.738 141.799 534.738 176.538C534.738 211.276 521.64 243.166 500 267.654ZM285.877 267.654C264.237 243.166 251.139 211.276 251.139 176.538C251.139 141.799 264.237 109.909 285.877 85.4214C307.517 109.909 320.615 141.799 320.615 176.538C321.185 211.276 307.517 243.166 285.877 267.654ZM37.0159 176.538C37.0159 99.6584 100.797 37.0159 178.815 37.0159C207.859 37.0159 235.194 45.5582 257.973 60.9339C230.638 91.6856 214.123 132.118 214.123 176.538C214.123 220.957 230.638 261.389 257.973 292.141C235.194 306.948 208.428 316.059 178.815 316.059C100.797 316.059 37.0159 253.417 37.0159 176.538ZM313.781 292.141C341.116 261.389 357.631 220.957 357.631 176.538C357.631 132.118 341.116 91.6856 313.781 60.9339C336.56 46.1275 363.326 37.0159 392.938 37.0159C422.551 37.0159 449.317 45.5582 472.096 60.9339C444.761 91.6856 427.676 132.118 427.676 176.538C427.676 220.957 444.191 261.389 472.096 292.141C449.317 306.948 422.551 316.059 392.938 316.059C363.895 316.059 336.56 306.948 313.781 292.141ZM527.904 292.141C555.239 261.389 572.323 220.957 572.323 176.538C572.323 132.118 555.809 91.6856 527.904 60.9339C550.683 46.1275 577.449 37.0159 607.061 37.0159C636.674 37.0159 663.439 45.5582 686.219 60.9339C658.884 91.6856 641.8 132.118 641.8 176.538C641.8 220.957 658.314 261.389 686.219 292.141C663.439 306.948 636.674 316.059 607.061 316.059C577.449 316.059 550.683 306.948 527.904 292.141ZM821.184 316.059C792.141 316.059 764.806 307.517 742.027 292.141C769.362 261.389 786.446 220.957 786.446 176.538C786.446 132.118 769.932 91.6856 742.027 60.9339C764.806 46.1275 791.572 37.0159 821.184 37.0159C899.203 37.0159 962.984 99.6584 962.984 176.538C962.984 253.417 899.203 316.059 821.184 316.059Z" fill="black"/>
</svg>
