<svg width="600" height="600" viewBox="0 0 600 600" fill="none" xmlns="http://www.w3.org/2000/svg">
<path d="M477.778 300C477.778 398.248 398.248 477.778 300 477.778V300H477.778ZM300 122.222V300H122.222C122.222 201.752 201.752 122.222 300 122.222Z" fill="#0166B1"/>
<path d="M300 122.222C398.248 122.222 477.778 201.752 477.778 300H300V122.222ZM122.222 300H300V477.778C201.752 477.778 122.222 398.248 122.222 300Z" fill="white"/>
<path d="M300 122.222V131.97C392.643 131.97 468.031 207.339 468.031 300H477.778C477.778 201.822 398.178 122.222 300 122.222ZM300 468.031C207.357 468.031 131.97 392.661 131.97 300H122.222C122.222 398.178 201.822 477.778 300 477.778M300 0C134.319 0 0 134.319 0 300C0 465.681 134.319 600 300 600C465.681 600 600 465.681 600 300C600 134.319 465.681 0 300 0ZM580.492 300C580.492 454.904 454.921 580.492 300 580.492C145.079 580.492 19.5085 454.904 19.5085 300C19.5085 145.096 145.096 19.5085 300 19.5085C454.904 19.5085 580.492 145.096 580.492 300Z" fill="#6F6F6F"/>
<path d="M171.797 155.274C181.383 145.246 186.811 133.66 177.224 122.6C172.008 116.597 163.25 115.284 155.989 118.242L155.267 118.522L155.496 117.892C156.571 115.039 157.258 105.939 149.451 99.6558C145.645 96.5931 140.869 95.4555 136.041 95.9455C127.036 96.8556 120.11 102.963 101.254 123.842C95.5619 130.143 87.2793 140.083 82.3098 146.523L134.102 195.316C151.267 176.45 158.263 169.432 171.797 155.274ZM104.215 143.338C114.647 130.668 125.732 119.169 130.754 114.619C132.34 113.184 134.067 111.749 136.164 111.189C139.565 110.261 143.072 112.659 143.865 116.124C144.658 119.607 142.455 122.915 140.006 125.645C134.49 131.823 114.259 152.841 114.259 152.841L104.215 143.338ZM124.498 162.449C124.498 162.449 144.2 141.763 150.632 135.148C153.187 132.523 154.826 130.93 156.588 130.073C158.862 128.97 161.347 128.742 163.567 130.213C165.752 131.665 166.757 134.168 166.21 136.653C165.558 139.611 163.126 142.428 161.117 144.581C158.404 147.469 135.036 172.302 135.001 172.337L124.498 162.449ZM305.921 97.0831L322.504 60.191L323.561 56.9183L323.262 60.331L325.006 109.631C330.822 110.174 336.831 110.979 342.752 111.959L340.056 38.9447C331.773 38.0347 323.526 37.3871 315.279 37.0371L298.943 77.307L298.361 80.2996L297.78 77.307L281.461 37.0371C273.214 37.3871 264.967 38.0347 256.684 38.9447L253.988 111.959C259.909 110.979 265.918 110.191 271.734 109.631L273.478 60.331L273.179 56.9183L274.236 60.191L290.819 97.0831H305.921ZM443.641 173.405C447.712 177.745 453.58 184.746 456.875 188.998L517.567 150.741C514.536 146.803 509.707 140.818 506.095 136.6L467.66 161.837L465.034 164.077L466.991 161.242L483.961 127.605L471.96 115.687L438.072 132.54L435.217 134.483L437.491 131.875L462.92 93.7229C458.444 89.9427 454.144 86.4775 448.663 82.2772L410.14 142.498C415.022 146.226 421.454 151.704 425.56 155.431L461.827 136.74L464.153 135.043L462.444 137.353L443.641 173.405Z" fill="#6F6F6F"/>
</svg>
