<svg width="1000" height="213" viewBox="0 0 1000 213" fill="none" xmlns="http://www.w3.org/2000/svg">
<path d="M477.202 2.354C465.373 4.82735 437.844 12.8926 402.141 24.2915L386.549 29.2382L357.514 29.1307C327.081 28.9156 283.098 27.195 126.847 20.0976C-9.40251 13.8605 -0.584478 14.0755 0.490892 15.9037C6.08281 25.3669 17.1591 33.002 28.558 35.0452C40.172 37.3035 80.7134 41.1748 212.339 52.8964C249.009 56.23 287.722 59.7787 298.368 60.9616C354.072 67.0912 365.579 72.4681 381.387 99.5674C397.302 126.989 404.83 138.066 417.842 152.798C433.865 170.972 463.007 193.017 488.494 206.137L500 212.051L511.506 206.137C536.67 193.232 566.135 170.972 582.158 152.798C595.17 138.066 602.698 126.989 618.613 99.5674C634.421 72.4681 645.928 67.0912 701.632 60.9616C712.278 59.7787 750.991 56.23 787.661 52.8964C919.287 41.1748 959.828 37.3035 971.442 35.0452C982.841 33.002 993.917 25.3669 999.509 15.9037C1000.58 14.0755 1009.4 13.8605 873.153 20.0976C746.797 25.7971 680.339 28.593 647.326 29.3458C615.065 30.0985 619.904 30.9588 572.803 16.4413C530.863 3.42937 518.174 0.525876 502.151 0.0957284C492.042 -0.226882 487.418 0.203265 477.202 2.354ZM528.175 22.3559C550.865 28.0553 579.04 37.411 591.084 43.218C603.128 49.1326 606.031 52.4662 605.709 60.424C605.386 73.3284 588.826 111.074 575.491 129.678C567.318 141.184 550.865 158.175 538.176 168.391C527.96 176.671 504.839 191.942 501.29 192.909C496.881 193.985 472.255 177.639 453.544 161.294C434.51 144.625 420.1 125.806 409.024 103.224C403.002 90.8569 395.151 69.1344 394.076 61.4993C392.678 52.2511 399.345 46.4442 420.423 38.2713C438.381 31.2814 475.159 20.8504 493.548 17.5167C499.247 16.5489 511.937 18.2695 528.175 22.3559Z" fill="black"/>
<path d="M422.466 66.6611C417.412 69.9948 415.368 76.447 417.412 82.6841C419.885 90.7494 429.026 94.2981 438.596 90.9645C441.822 89.7816 441.93 89.5665 441.93 83.4369V77.0922H437.091C432.359 77.0922 430.639 78.7053 433.865 79.8882C434.833 80.3183 435.478 81.9314 435.478 84.1897C435.478 87.5233 435.263 87.8459 432.252 87.8459C424.617 87.8459 420.853 77.7374 425.907 71.1777C427.95 68.7043 428.918 68.3817 432.682 68.7043C435.155 69.027 437.951 69.5646 439.027 69.9948C440.532 70.7475 440.855 70.3174 440.855 68.1667C440.855 65.1556 438.704 64.1878 431.069 64.1878C427.735 64.1878 424.939 64.9406 422.466 66.6611Z" fill="black"/>
<path d="M445.909 64.9405C445.479 65.2631 445.586 66.1234 446.232 66.8761C446.769 67.5213 447.414 73.3283 447.522 79.8881L447.845 91.6096L457.308 91.9322C466.126 92.2548 466.664 92.1473 466.664 89.9966C466.664 88.0609 466.018 87.8458 460.104 87.8458H453.652L453.974 83.7594C454.297 79.7806 454.297 79.7806 459.459 79.4579C463.007 79.2429 464.513 78.7052 464.513 77.5223C464.513 76.4469 463.115 76.0168 459.136 76.0168H453.759V72.253V68.4892H460.319C465.911 68.4892 466.771 68.2741 466.233 66.7686C465.911 65.8008 465.588 64.8329 465.588 64.6178C465.588 63.8651 446.662 64.1877 445.909 64.9405Z" fill="black"/>
<path d="M470.32 65.4783C469.89 66.1236 470.105 66.9839 470.75 67.1989C471.61 67.414 472.04 71.3929 472.04 79.9958C472.04 92.1475 472.04 92.255 474.514 91.9324C476.664 91.6098 476.88 90.8571 477.417 84.1898L477.955 76.6622L484.192 84.5124C489.031 90.4269 491.074 92.1475 492.795 91.9324C495.053 91.6098 495.161 91.0721 495.161 78.1677C495.161 65.1557 495.053 64.7256 492.795 64.403C490.537 64.0804 490.429 64.5105 490.107 72.6833L489.784 81.3938L483.009 72.7909C477.955 66.2311 475.697 64.1879 473.761 64.1879C472.255 64.1879 470.75 64.7256 470.32 65.4783Z" fill="black"/>
<path d="M500 65.6934C500 66.5537 500.538 67.6291 501.075 67.9517C501.721 68.3818 502.151 73.6511 502.151 80.4259V92.1475H511.291C519.679 92.1475 520.432 91.9324 520.432 89.9967C520.432 88.0611 519.679 87.846 514.517 87.846H508.603V83.5445V79.243H513.98C518.066 79.243 519.357 78.8129 519.357 77.63C519.357 76.4471 518.066 76.0169 513.98 76.0169H508.603V72.2531V68.4893H514.625C519.679 68.4893 520.54 68.1667 520.217 66.5537C519.894 65.0482 518.389 64.7256 509.893 64.4029C501.721 64.1879 500 64.4029 500 65.6934Z" fill="black"/>
<path d="M528.175 65.2632C526.884 65.8009 525.271 67.5215 524.733 69.1346C523.12 73.3285 525.486 77.0923 531.723 80.5335C537.961 83.8671 538.928 87.0932 534.089 87.6309C532.369 87.846 529.573 87.5234 527.852 86.8782C524.733 85.8028 524.626 85.9103 524.949 88.7063C525.271 91.5023 525.594 91.6098 531.831 91.9324C537.1 92.1475 538.821 91.8249 541.187 89.9967C546.671 85.6953 544.735 79.5657 536.563 75.4792C532.691 73.5436 531.186 72.1456 531.186 70.425C531.186 68.3818 531.616 68.2743 537.1 68.812C542.37 69.3496 543.015 69.1346 543.015 67.414C543.015 66.3386 542.262 65.1557 541.294 64.8331C538.821 63.8653 531.078 64.1879 528.175 65.2632Z" fill="black"/>
<path d="M547.746 65.4783C547.316 66.1235 547.531 66.9838 548.177 67.1989C549.037 67.414 549.467 71.3928 549.467 79.8883V92.1475H552.693H555.919V78.1677V64.1879H552.263C550.22 64.1879 548.177 64.7256 547.746 65.4783Z" fill="black"/>
<path d="M565.49 65.801C559.253 69.2422 561.081 75.9095 569.361 80.2109C573.018 82.1466 574.738 83.7597 574.738 85.1576C574.738 87.7385 570.329 88.5988 565.49 86.8782C562.371 85.8029 562.264 85.9104 562.587 88.7064C562.909 91.5023 563.232 91.6099 569.469 91.9325C577.642 92.3626 581.728 89.6742 581.728 84.1898C581.728 80.3185 580.33 78.7054 573.448 74.9416C570.437 73.3286 568.824 71.608 568.824 70.3175C568.824 68.3819 569.361 68.2743 574.738 68.812C580.008 69.3497 580.653 69.1346 580.653 67.414C580.653 66.3387 579.9 65.1558 578.932 64.8332C575.921 63.6502 568.394 64.1879 565.49 65.801Z" fill="black"/>
<path d="M31.354 48.9177C31.5691 49.4554 35.3329 53.1117 39.7419 57.1981C71.5728 86.2331 94.8008 95.0511 153.731 100.105C180.615 102.471 217.285 104.729 261.806 106.665C283.098 107.633 303.1 108.923 306.326 109.569C310.305 110.321 313.208 111.719 316.004 114.193C318.155 116.128 319.553 118.064 319.23 118.387C318.585 119.032 241.051 117.741 197.283 116.343C183.519 115.913 177.174 116.021 177.927 116.774C180.4 119.247 234.169 134.302 263.849 140.862L279.012 144.195L320.951 144.303C366.439 144.411 366.117 144.411 371.923 150.54L374.397 153.229L369.773 153.874C364.503 154.519 334.931 156.67 331.059 156.67C329.554 156.67 329.016 157.1 329.661 157.638C330.844 158.928 369.02 169.359 386.011 173.23C401.819 176.672 429.026 181.726 429.563 181.188C429.778 180.973 427.305 178.607 423.971 176.026C410.099 164.95 394.399 145.916 374.074 115.806C363.536 100.105 352.782 88.3838 345.362 84.2974C335.361 78.9205 312.671 74.9417 264.494 70.1025C139.536 57.8433 37.3761 48.0574 32.752 48.0574C31.7841 48.0574 31.1389 48.4876 31.354 48.9177Z" fill="black"/>
<path d="M922.62 51.9288C901.651 53.8644 859.496 57.9508 829.063 60.9619C798.63 63.9729 758.949 67.8442 740.883 69.6724C687.437 74.8341 664.962 78.7055 654.638 84.2974C647.218 88.3838 636.464 100.105 625.926 115.806C605.601 145.916 589.901 164.95 576.029 176.026C572.695 178.607 570.222 180.973 570.437 181.188C570.974 181.726 598.181 176.672 613.989 173.23C630.98 169.359 669.156 158.928 670.339 157.638C670.984 157.1 670.446 156.67 668.941 156.67C665.069 156.67 635.497 154.519 630.227 153.874L625.603 153.229L628.077 150.54C633.884 144.411 633.561 144.411 679.049 144.303L720.988 144.195L736.151 140.862C765.724 134.302 819.6 119.247 822.073 116.774C822.826 116.021 816.589 115.913 803.254 116.343C761.1 117.634 681.415 119.032 680.77 118.387C680.447 118.064 681.845 116.128 683.996 114.193C686.792 111.719 689.695 110.321 693.674 109.569C696.9 108.923 716.902 107.633 738.194 106.665C782.715 104.729 819.277 102.471 846.269 100.105C905.092 95.0511 928.427 86.2331 960.258 57.1981C964.667 53.1117 968.538 49.4554 968.646 48.9177C969.184 47.6273 964.56 47.9499 922.62 51.9288Z" fill="black"/>
</svg>
