<svg width="1000" height="236" viewBox="0 0 1000 236" fill="none" xmlns="http://www.w3.org/2000/svg">
<path d="M580.142 208.279C580.142 210.179 580.742 211.279 581.842 211.279C582.742 211.179 583.542 210.779 584.242 210.279L895.91 7.9992C901.177 4.31827 907.486 2.42555 913.909 2.59974H982.402C992.901 2.59974 1000 9.59904 1000 20.098V150.885C1000 166.683 996.5 175.882 982.502 184.282L899.41 234.277C898.582 234.852 897.616 235.197 896.61 235.276C895.61 235.276 894.611 234.477 894.611 231.577V78.9921C894.611 77.1923 894.111 75.9924 892.911 75.9924C892.033 76.0934 891.201 76.44 890.511 76.9923L662.734 224.977C657.534 228.477 651.435 230.377 645.235 230.277H494.251C483.652 230.277 476.652 223.278 476.652 212.679V24.1976C476.652 22.7977 476.052 21.4979 474.853 21.4979C473.977 21.609 473.148 21.9544 472.453 22.4977L322.168 112.689C320.668 113.689 320.268 114.389 320.268 115.088C320.268 115.688 320.568 116.288 321.568 117.388L428.957 224.678C430.357 226.077 431.357 227.177 431.357 228.377C431.357 229.377 429.757 230.177 427.857 230.177H330.867C323.268 230.177 317.368 229.077 313.269 224.977L248.175 159.984C247.928 159.689 247.623 159.448 247.279 159.276C246.935 159.104 246.56 159.004 246.175 158.984C245.47 159.017 244.783 159.223 244.176 159.584L135.386 224.977C128.787 228.977 124.288 230.077 117.788 230.077H17.6982C6.9993 230.177 0 223.078 0 212.579V84.2916C0 68.3932 3.49965 59.2941 17.5982 50.8949L101.19 0.69993C101.846 0.270458 102.606 0.0284232 103.39 0C104.69 0 105.389 1.29987 105.389 4.19958V175.982C105.389 177.782 105.789 178.582 107.089 178.582C107.989 178.482 108.789 178.082 109.589 177.582L391.961 7.69923C397.36 3.9996 403.96 2.19978 410.559 2.49975H562.544C573.043 2.49975 580.142 9.49905 580.142 19.998L580.042 208.279H580.142Z" fill="#131E29"/>
</svg>
