<svg width="600" height="600" viewBox="0 0 600 600" fill="none" xmlns="http://www.w3.org/2000/svg">
<path fill-rule="evenodd" clip-rule="evenodd" d="M439.23 34.0094C534.755 84.2434 600 184.399 600 299.844C600 415.289 534.755 515.757 439.23 565.679V531.357C475.754 509.516 506.66 478.939 529.136 442.746L439.23 406.24V350.702L537.877 427.769C558.481 389.704 570.031 346.334 570.031 299.844C570.031 201.872 517.586 115.757 439.23 68.3307V34.0094ZM300.312 0C350.26 0 397.399 12.1685 439.23 34.0094V68.3307C400.832 45.2418 355.879 31.5133 308.429 29.9532L342.768 275.507L439.23 350.702V406.24L299.688 349.766L161.082 406.552V351.326L258.169 275.507L292.196 29.9532C244.121 31.5133 199.48 45.2418 161.082 68.3307V34.0094C202.601 12.1685 250.052 0 300.312 0ZM439.23 565.679C397.399 587.52 350.26 600 300.312 600C250.052 600 202.601 587.52 161.082 565.991V531.357C201.665 556.006 249.428 570.047 300.312 570.047C350.885 570.047 398.335 556.006 439.23 531.357V565.679ZM161.082 565.991C65.2445 515.757 0 415.289 0 299.844C0 184.399 65.2445 84.2434 161.082 34.0094V68.3307C82.4142 115.757 29.9688 201.56 29.9688 299.844C29.9688 346.334 41.8314 390.328 62.435 428.393L161.082 351.326V406.552L71.488 443.37C93.9646 479.251 124.558 509.516 161.082 531.357V565.991Z" fill="#73797C"/>
</svg>
