<svg width="1000" height="67" viewBox="0 0 1000 67" fill="none" xmlns="http://www.w3.org/2000/svg">
<path fill-rule="evenodd" clip-rule="evenodd" d="M155.13 66.8999H265.55C270.55 66.8999 274.6 62.8599 274.6 57.9149V8.98988C274.6 4.04988 270.55 0.00488281 265.55 0.00488281H155.13C150.13 0.00488281 146.08 4.04988 146.08 8.98988V57.9149C146.085 62.8599 150.13 66.8999 155.13 66.8999ZM162.15 12.9849H259.035C260.695 12.9849 262.05 14.3349 262.05 15.9799V50.9299C262.05 52.5749 260.695 53.9249 259.035 53.9249H162.15C160.49 53.9249 159.135 52.5749 159.135 50.9299V15.9799C159.135 14.3299 160.49 12.9849 162.15 12.9849Z" fill="black"/>
<path fill-rule="evenodd" clip-rule="evenodd" d="M0 66.8999H13.05V50.9299H118.975C124.22 50.9299 128.515 46.6599 128.515 41.4449V9.48988C128.515 4.27488 124.22 0.00488281 118.975 0.00488281H13.05H9.535H0V9.48988V41.4449V66.8999ZM13.05 37.9449V12.9849H16.56H101.9H111.44C113.645 12.9849 115.455 14.7799 115.455 16.9799V33.9549C115.455 36.1499 113.65 37.9499 111.44 37.9499H101.9H16.565L13.05 37.9449Z" fill="black"/>
<path fill-rule="evenodd" clip-rule="evenodd" d="M291.665 66.9H304.72V50.93H398.81L407.055 66.9H421.165L412.79 50.685C417.01 49.71 420.175 45.925 420.175 41.44V9.485C420.175 4.27 415.885 0 410.64 0H304.72H301.205H291.665V9.485V41.44V66.9ZM304.72 37.945V12.985H308.23H393.57H403.105C405.315 12.985 407.125 14.78 407.125 16.98V33.955C407.125 36.15 405.32 37.95 403.105 37.95H393.57H308.23L304.72 37.945Z" fill="black"/>
<path fill-rule="evenodd" clip-rule="evenodd" d="M728.415 66.9H741.47V39.94H837.35V66.9H850.405V0H837.35V26.965H741.47V0H728.415V66.9Z" fill="black"/>
<path fill-rule="evenodd" clip-rule="evenodd" d="M596.9 66.9H708.84V53.75C708.525 53.86 708.185 53.92 707.835 53.92H603.92C602.27 53.92 600.905 52.57 600.905 50.925V15.975C600.905 14.33 602.265 12.98 603.92 12.98H707.835C708.185 12.98 708.525 13.045 708.84 13.155V0H596.9C591.905 0 587.855 4.045 587.855 8.985V57.91C587.855 62.86 591.905 66.9 596.9 66.9Z" fill="black"/>
<path fill-rule="evenodd" clip-rule="evenodd" d="M870.485 66.9H878.02H883.54H1000V53.92H883.54V39.94H1000V26.965H883.54V12.985H1000V0H883.54H878.02H870.485V66.9Z" fill="black"/>
<path fill-rule="evenodd" clip-rule="evenodd" d="M456.33 18.975V15.975C456.33 14.33 457.685 12.98 459.34 12.98H563.26C563.61 12.98 563.95 13.045 564.26 13.155V0H452.32C447.32 0 443.27 4.045 443.27 8.985V12.98V18.97V30.95C443.27 35.89 447.32 39.935 452.32 39.935H461.85V40.105C462.165 40 462.5 39.935 462.85 39.935H548.19C549.85 39.935 551.205 41.285 551.205 42.935V47.925V50.925C551.205 52.57 549.85 53.92 548.19 53.92H444.275C443.925 53.92 443.585 53.86 443.27 53.75V66.9H555.21C560.21 66.9 564.26 62.855 564.26 57.915V53.92V47.93V35.95C564.26 31.005 560.21 26.96 555.21 26.96H545.69V26.79C545.37 26.9 545.035 26.96 544.68 26.96H459.335C457.68 26.96 456.325 25.61 456.325 23.96L456.33 18.975Z" fill="black"/>
</svg>
