<svg width="600" height="600" viewBox="0 0 600 600" fill="none" xmlns="http://www.w3.org/2000/svg">
<path d="M300 572.4C150.6 572.4 28.2 449.4 28.2 300C28.2 266.4 34.2 234.6 45.6 204.6L204.6 524.4C206.4 528.6 209.4 532.2 214.2 532.2C219 532.2 222 528.6 223.8 524.4L297 360.6C297.6 358.8 298.8 357 300.6 357C302.4 357 303 358.8 304.2 360.6L377.4 524.4C379.2 528.6 382.2 532.2 387 532.2C391.8 532.2 394.8 528.6 396.6 524.4L555.6 204.6C567 234.6 573 266.4 573 300C571.8 449.4 449.4 572.4 300 572.4ZM300 238.2C298.2 238.2 297.6 236.4 296.4 234.6L211.2 42.6C238.8 32.4 268.8 27 300 27C331.2 27 361.2 32.4 388.8 42.6L303.6 234.6C302.4 237 301.8 238.2 300 238.2ZM213 435.6C211.2 435.6 210.6 433.8 209.4 432L71.4 153.6C96 115.8 129 84 169.2 61.8L268.8 283.2C270 286.8 273 288 276 288H324C327.6 288 330 287.4 331.8 283.2L431.4 61.8C471 84 504.6 115.8 529.2 153.6L390 432C389.4 433.8 388.2 435.6 386.4 435.6C384.6 435.6 384 433.8 382.8 432L330.6 313.2C328.8 309 326.4 308.4 322.8 308.4H274.8C271.2 308.4 268.8 309 267 313.2L216.6 432C216 433.8 214.8 435.6 213 435.6ZM300 600C466.2 600 600 466.2 600 300C600 133.8 466.2 0 300 0C133.8 0 0 133.8 0 300C0 466.2 133.8 600 300 600Z" fill="#001E50"/>
</svg>
